<mxfile host="65bd71144e">
    <diagram id="qGkzBCWYP2JwlvV2tt4X" name="Purpose">
        <mxGraphModel dx="1076" dy="790" grid="1" gridSize="10" guides="1" tooltips="1" connect="1" arrows="1" fold="1" page="1" pageScale="1" pageWidth="850" pageHeight="1100" math="0" shadow="0">
            <root>
                <mxCell id="0"/>
                <mxCell id="1" parent="0"/>
                <mxCell id="4" value="" style="shape=actor;whiteSpace=wrap;html=1;" vertex="1" parent="1">
                    <mxGeometry x="360" y="240" width="40" height="60" as="geometry"/>
                </mxCell>
                <mxCell id="5" value="title" style="ellipse;shape=cloud;whiteSpace=wrap;html=1;" vertex="1" parent="1">
                    <mxGeometry x="320" y="130" width="120" height="80" as="geometry"/>
                </mxCell>
                <mxCell id="6" value="books" style="ellipse;shape=cloud;whiteSpace=wrap;html=1;" vertex="1" parent="1">
                    <mxGeometry x="440" y="190" width="120" height="80" as="geometry"/>
                </mxCell>
                <mxCell id="8" value="author" style="ellipse;shape=cloud;whiteSpace=wrap;html=1;" vertex="1" parent="1">
                    <mxGeometry x="200" y="200" width="120" height="80" as="geometry"/>
                </mxCell>
                <mxCell id="9" value="chapters" style="ellipse;shape=cloud;whiteSpace=wrap;html=1;" vertex="1" parent="1">
                    <mxGeometry x="440" y="300" width="120" height="80" as="geometry"/>
                </mxCell>
                <mxCell id="10" value="description" style="ellipse;shape=cloud;whiteSpace=wrap;html=1;" vertex="1" parent="1">
                    <mxGeometry x="320" y="320" width="120" height="80" as="geometry"/>
                </mxCell>
                <mxCell id="11" value="reading start date" style="ellipse;shape=cloud;whiteSpace=wrap;html=1;" vertex="1" parent="1">
                    <mxGeometry x="150" y="280" width="130" height="90" as="geometry"/>
                </mxCell>
                <mxCell id="12" value="reading end date" style="ellipse;shape=cloud;whiteSpace=wrap;html=1;" vertex="1" parent="1">
                    <mxGeometry x="200" y="380" width="130" height="90" as="geometry"/>
                </mxCell>
                <mxCell id="13" value="purchase date" style="ellipse;shape=cloud;whiteSpace=wrap;html=1;" vertex="1" parent="1">
                    <mxGeometry x="380" y="400" width="130" height="90" as="geometry"/>
                </mxCell>
            </root>
        </mxGraphModel>
    </diagram>
    <diagram id="6RpQIHceP03UAX_K-LFX" name="ER">
        <mxGraphModel dx="1266" dy="929" grid="1" gridSize="10" guides="1" tooltips="1" connect="1" arrows="1" fold="1" page="1" pageScale="1" pageWidth="850" pageHeight="1100" math="0" shadow="0">
            <root>
                <mxCell id="HDtmPVLynWEztx-Lgx2f-0"/>
                <mxCell id="HDtmPVLynWEztx-Lgx2f-1" parent="HDtmPVLynWEztx-Lgx2f-0"/>
                <mxCell id="HDtmPVLynWEztx-Lgx2f-2" value="user" style="rounded=0;whiteSpace=wrap;html=1;" vertex="1" parent="HDtmPVLynWEztx-Lgx2f-1">
                    <mxGeometry x="370" y="200" width="120" height="60" as="geometry"/>
                </mxCell>
                <mxCell id="HDtmPVLynWEztx-Lgx2f-8" value="" style="edgeStyle=none;html=1;startArrow=none;startFill=0;endArrow=ERmany;endFill=0;" edge="1" parent="HDtmPVLynWEztx-Lgx2f-1" source="HDtmPVLynWEztx-Lgx2f-3" target="HDtmPVLynWEztx-Lgx2f-4">
                    <mxGeometry relative="1" as="geometry"/>
                </mxCell>
                <mxCell id="oDYzQLkar8WeZtvxlOlH-1" value="" style="edgeStyle=none;html=1;startArrow=none;startFill=0;endArrow=none;endFill=0;" edge="1" parent="HDtmPVLynWEztx-Lgx2f-1" source="HDtmPVLynWEztx-Lgx2f-3" target="oDYzQLkar8WeZtvxlOlH-0">
                    <mxGeometry relative="1" as="geometry"/>
                </mxCell>
                <mxCell id="HDtmPVLynWEztx-Lgx2f-3" value="search" style="rhombus;whiteSpace=wrap;html=1;" vertex="1" parent="HDtmPVLynWEztx-Lgx2f-1">
                    <mxGeometry x="390" y="420" width="80" height="80" as="geometry"/>
                </mxCell>
                <mxCell id="HDtmPVLynWEztx-Lgx2f-4" value="book" style="rounded=0;whiteSpace=wrap;html=1;" vertex="1" parent="HDtmPVLynWEztx-Lgx2f-1">
                    <mxGeometry x="370" y="850" width="120" height="60" as="geometry"/>
                </mxCell>
                <mxCell id="HDtmPVLynWEztx-Lgx2f-7" value="" style="endArrow=ERmany;html=1;entryX=0.5;entryY=1;entryDx=0;entryDy=0;exitX=0.5;exitY=0;exitDx=0;exitDy=0;endFill=0;" edge="1" parent="HDtmPVLynWEztx-Lgx2f-1" source="HDtmPVLynWEztx-Lgx2f-3" target="HDtmPVLynWEztx-Lgx2f-2">
                    <mxGeometry width="50" height="50" relative="1" as="geometry">
                        <mxPoint x="480" y="450" as="sourcePoint"/>
                        <mxPoint x="590" y="330" as="targetPoint"/>
                    </mxGeometry>
                </mxCell>
                <mxCell id="c-QA1vv9fVMDzpl91ED1-4" style="edgeStyle=none;html=1;exitX=1;exitY=0.5;exitDx=0;exitDy=0;entryX=0;entryY=0.5;entryDx=0;entryDy=0;startArrow=none;startFill=0;endArrow=none;endFill=0;" edge="1" parent="HDtmPVLynWEztx-Lgx2f-1" source="Ldkp6jO8A5XuBbhfn18N-0" target="HDtmPVLynWEztx-Lgx2f-4">
                    <mxGeometry relative="1" as="geometry"/>
                </mxCell>
                <mxCell id="Ldkp6jO8A5XuBbhfn18N-0" value="author" style="ellipse;whiteSpace=wrap;html=1;" vertex="1" parent="HDtmPVLynWEztx-Lgx2f-1">
                    <mxGeometry x="90" y="790" width="120" height="80" as="geometry"/>
                </mxCell>
                <mxCell id="c-QA1vv9fVMDzpl91ED1-3" style="edgeStyle=none;html=1;exitX=1;exitY=0.5;exitDx=0;exitDy=0;entryX=0;entryY=0.5;entryDx=0;entryDy=0;startArrow=none;startFill=0;endArrow=none;endFill=0;" edge="1" parent="HDtmPVLynWEztx-Lgx2f-1" source="Ldkp6jO8A5XuBbhfn18N-1" target="HDtmPVLynWEztx-Lgx2f-4">
                    <mxGeometry relative="1" as="geometry"/>
                </mxCell>
                <mxCell id="Ldkp6jO8A5XuBbhfn18N-1" value="title" style="ellipse;whiteSpace=wrap;html=1;" vertex="1" parent="HDtmPVLynWEztx-Lgx2f-1">
                    <mxGeometry x="90" y="700" width="120" height="80" as="geometry"/>
                </mxCell>
                <mxCell id="c-QA1vv9fVMDzpl91ED1-5" style="edgeStyle=none;html=1;exitX=1;exitY=0.5;exitDx=0;exitDy=0;startArrow=none;startFill=0;endArrow=none;endFill=0;entryX=0;entryY=0.5;entryDx=0;entryDy=0;" edge="1" parent="HDtmPVLynWEztx-Lgx2f-1" source="Ldkp6jO8A5XuBbhfn18N-2" target="HDtmPVLynWEztx-Lgx2f-4">
                    <mxGeometry relative="1" as="geometry">
                        <mxPoint x="370" y="760" as="targetPoint"/>
                    </mxGeometry>
                </mxCell>
                <mxCell id="Ldkp6jO8A5XuBbhfn18N-2" value="description" style="ellipse;whiteSpace=wrap;html=1;" vertex="1" parent="HDtmPVLynWEztx-Lgx2f-1">
                    <mxGeometry x="90" y="880" width="120" height="80" as="geometry"/>
                </mxCell>
                <mxCell id="c-QA1vv9fVMDzpl91ED1-0" style="edgeStyle=none;html=1;exitX=0;exitY=0.5;exitDx=0;exitDy=0;entryX=1;entryY=0.5;entryDx=0;entryDy=0;startArrow=none;startFill=0;endArrow=none;endFill=0;" edge="1" parent="HDtmPVLynWEztx-Lgx2f-1" source="Ldkp6jO8A5XuBbhfn18N-3" target="HDtmPVLynWEztx-Lgx2f-4">
                    <mxGeometry relative="1" as="geometry"/>
                </mxCell>
                <mxCell id="Ldkp6jO8A5XuBbhfn18N-3" value="reading start date" style="ellipse;whiteSpace=wrap;html=1;" vertex="1" parent="HDtmPVLynWEztx-Lgx2f-1">
                    <mxGeometry x="590" y="760" width="120" height="80" as="geometry"/>
                </mxCell>
                <mxCell id="c-QA1vv9fVMDzpl91ED1-1" style="edgeStyle=none;html=1;exitX=0;exitY=0.5;exitDx=0;exitDy=0;entryX=1;entryY=0.5;entryDx=0;entryDy=0;startArrow=none;startFill=0;endArrow=none;endFill=0;" edge="1" parent="HDtmPVLynWEztx-Lgx2f-1" source="U02GgQwrUnwMw3LbmROY-0" target="HDtmPVLynWEztx-Lgx2f-4">
                    <mxGeometry relative="1" as="geometry"/>
                </mxCell>
                <mxCell id="U02GgQwrUnwMw3LbmROY-0" value="reading end date" style="ellipse;whiteSpace=wrap;html=1;" vertex="1" parent="HDtmPVLynWEztx-Lgx2f-1">
                    <mxGeometry x="590" y="840" width="120" height="80" as="geometry"/>
                </mxCell>
                <mxCell id="c-QA1vv9fVMDzpl91ED1-2" style="edgeStyle=none;html=1;exitX=0;exitY=0.5;exitDx=0;exitDy=0;startArrow=none;startFill=0;endArrow=none;endFill=0;entryX=1;entryY=0.5;entryDx=0;entryDy=0;" edge="1" parent="HDtmPVLynWEztx-Lgx2f-1" source="U02GgQwrUnwMw3LbmROY-1" target="HDtmPVLynWEztx-Lgx2f-4">
                    <mxGeometry relative="1" as="geometry">
                        <mxPoint x="490" y="760" as="targetPoint"/>
                    </mxGeometry>
                </mxCell>
                <mxCell id="U02GgQwrUnwMw3LbmROY-1" value="purchase date" style="ellipse;whiteSpace=wrap;html=1;" vertex="1" parent="HDtmPVLynWEztx-Lgx2f-1">
                    <mxGeometry x="590" y="920" width="120" height="80" as="geometry"/>
                </mxCell>
                <mxCell id="c-QA1vv9fVMDzpl91ED1-6" style="edgeStyle=none;html=1;exitX=1;exitY=0.5;exitDx=0;exitDy=0;entryX=0;entryY=0.5;entryDx=0;entryDy=0;startArrow=none;startFill=0;endArrow=none;endFill=0;" edge="1" parent="HDtmPVLynWEztx-Lgx2f-1" source="cZNj4leetHQAkteOxbQy-0" target="HDtmPVLynWEztx-Lgx2f-4">
                    <mxGeometry relative="1" as="geometry"/>
                </mxCell>
                <mxCell id="cZNj4leetHQAkteOxbQy-0" value="chapters" style="ellipse;whiteSpace=wrap;html=1;" vertex="1" parent="HDtmPVLynWEztx-Lgx2f-1">
                    <mxGeometry x="90" y="970" width="120" height="80" as="geometry"/>
                </mxCell>
                <mxCell id="c-QA1vv9fVMDzpl91ED1-11" style="edgeStyle=none;html=1;startArrow=none;startFill=0;endArrow=none;endFill=0;" edge="1" parent="HDtmPVLynWEztx-Lgx2f-1" source="c-QA1vv9fVMDzpl91ED1-7" target="HDtmPVLynWEztx-Lgx2f-2">
                    <mxGeometry relative="1" as="geometry"/>
                </mxCell>
                <mxCell id="c-QA1vv9fVMDzpl91ED1-7" value="fName" style="ellipse;whiteSpace=wrap;html=1;" vertex="1" parent="HDtmPVLynWEztx-Lgx2f-1">
                    <mxGeometry x="590" y="190" width="120" height="80" as="geometry"/>
                </mxCell>
                <mxCell id="c-QA1vv9fVMDzpl91ED1-12" style="edgeStyle=none;html=1;exitX=0;exitY=1;exitDx=0;exitDy=0;entryX=1;entryY=0;entryDx=0;entryDy=0;startArrow=none;startFill=0;endArrow=none;endFill=0;" edge="1" parent="HDtmPVLynWEztx-Lgx2f-1" source="c-QA1vv9fVMDzpl91ED1-8" target="HDtmPVLynWEztx-Lgx2f-2">
                    <mxGeometry relative="1" as="geometry"/>
                </mxCell>
                <mxCell id="c-QA1vv9fVMDzpl91ED1-8" value="lName" style="ellipse;whiteSpace=wrap;html=1;" vertex="1" parent="HDtmPVLynWEztx-Lgx2f-1">
                    <mxGeometry x="530" y="90" width="120" height="80" as="geometry"/>
                </mxCell>
                <mxCell id="c-QA1vv9fVMDzpl91ED1-13" style="edgeStyle=none;html=1;exitX=0.5;exitY=1;exitDx=0;exitDy=0;entryX=0.5;entryY=0;entryDx=0;entryDy=0;startArrow=none;startFill=0;endArrow=none;endFill=0;" edge="1" parent="HDtmPVLynWEztx-Lgx2f-1" source="c-QA1vv9fVMDzpl91ED1-10" target="HDtmPVLynWEztx-Lgx2f-2">
                    <mxGeometry relative="1" as="geometry"/>
                </mxCell>
                <mxCell id="c-QA1vv9fVMDzpl91ED1-10" value="userID" style="ellipse;whiteSpace=wrap;html=1;" vertex="1" parent="HDtmPVLynWEztx-Lgx2f-1">
                    <mxGeometry x="370" y="50" width="120" height="80" as="geometry"/>
                </mxCell>
                <mxCell id="oDYzQLkar8WeZtvxlOlH-0" value="title" style="ellipse;whiteSpace=wrap;html=1;" vertex="1" parent="HDtmPVLynWEztx-Lgx2f-1">
                    <mxGeometry x="580" y="420" width="120" height="80" as="geometry"/>
                </mxCell>
                <mxCell id="oDYzQLkar8WeZtvxlOlH-15" style="edgeStyle=none;html=1;exitX=0;exitY=0.5;exitDx=0;exitDy=0;startArrow=none;startFill=0;endArrow=none;endFill=0;" edge="1" parent="HDtmPVLynWEztx-Lgx2f-1" source="oDYzQLkar8WeZtvxlOlH-2">
                    <mxGeometry relative="1" as="geometry">
                        <mxPoint x="470" y="460" as="targetPoint"/>
                    </mxGeometry>
                </mxCell>
                <mxCell id="oDYzQLkar8WeZtvxlOlH-2" value="author" style="ellipse;whiteSpace=wrap;html=1;" vertex="1" parent="HDtmPVLynWEztx-Lgx2f-1">
                    <mxGeometry x="580" y="500" width="120" height="80" as="geometry"/>
                </mxCell>
                <mxCell id="oDYzQLkar8WeZtvxlOlH-14" style="edgeStyle=none;html=1;exitX=0;exitY=0.5;exitDx=0;exitDy=0;startArrow=none;startFill=0;endArrow=none;endFill=0;" edge="1" parent="HDtmPVLynWEztx-Lgx2f-1" source="oDYzQLkar8WeZtvxlOlH-3">
                    <mxGeometry relative="1" as="geometry">
                        <mxPoint x="470" y="460" as="targetPoint"/>
                    </mxGeometry>
                </mxCell>
                <mxCell id="oDYzQLkar8WeZtvxlOlH-3" value="description" style="ellipse;whiteSpace=wrap;html=1;" vertex="1" parent="HDtmPVLynWEztx-Lgx2f-1">
                    <mxGeometry x="580" y="330" width="120" height="80" as="geometry"/>
                </mxCell>
                <mxCell id="oDYzQLkar8WeZtvxlOlH-11" style="edgeStyle=none;html=1;exitX=1;exitY=0.5;exitDx=0;exitDy=0;startArrow=none;startFill=0;endArrow=none;endFill=0;" edge="1" parent="HDtmPVLynWEztx-Lgx2f-1" source="oDYzQLkar8WeZtvxlOlH-4">
                    <mxGeometry relative="1" as="geometry">
                        <mxPoint x="390" y="460" as="targetPoint"/>
                    </mxGeometry>
                </mxCell>
                <mxCell id="oDYzQLkar8WeZtvxlOlH-4" value="chapters" style="ellipse;whiteSpace=wrap;html=1;" vertex="1" parent="HDtmPVLynWEztx-Lgx2f-1">
                    <mxGeometry x="90" y="560" width="120" height="80" as="geometry"/>
                </mxCell>
                <mxCell id="oDYzQLkar8WeZtvxlOlH-12" style="edgeStyle=none;html=1;exitX=1;exitY=0.5;exitDx=0;exitDy=0;startArrow=none;startFill=0;endArrow=none;endFill=0;" edge="1" parent="HDtmPVLynWEztx-Lgx2f-1" source="oDYzQLkar8WeZtvxlOlH-5">
                    <mxGeometry relative="1" as="geometry">
                        <mxPoint x="390" y="460" as="targetPoint"/>
                    </mxGeometry>
                </mxCell>
                <mxCell id="oDYzQLkar8WeZtvxlOlH-5" value="reading start date" style="ellipse;whiteSpace=wrap;html=1;" vertex="1" parent="HDtmPVLynWEztx-Lgx2f-1">
                    <mxGeometry x="90" y="470" width="120" height="80" as="geometry"/>
                </mxCell>
                <mxCell id="oDYzQLkar8WeZtvxlOlH-9" style="edgeStyle=none;html=1;exitX=1;exitY=0.5;exitDx=0;exitDy=0;startArrow=none;startFill=0;endArrow=none;endFill=0;" edge="1" parent="HDtmPVLynWEztx-Lgx2f-1" source="oDYzQLkar8WeZtvxlOlH-6">
                    <mxGeometry relative="1" as="geometry">
                        <mxPoint x="390" y="460" as="targetPoint"/>
                    </mxGeometry>
                </mxCell>
                <mxCell id="oDYzQLkar8WeZtvxlOlH-6" value="reading end date" style="ellipse;whiteSpace=wrap;html=1;" vertex="1" parent="HDtmPVLynWEztx-Lgx2f-1">
                    <mxGeometry x="90" y="380" width="120" height="80" as="geometry"/>
                </mxCell>
                <mxCell id="oDYzQLkar8WeZtvxlOlH-8" style="edgeStyle=none;html=1;exitX=1;exitY=0.5;exitDx=0;exitDy=0;entryX=0;entryY=0.5;entryDx=0;entryDy=0;startArrow=none;startFill=0;endArrow=none;endFill=0;" edge="1" parent="HDtmPVLynWEztx-Lgx2f-1" source="oDYzQLkar8WeZtvxlOlH-7" target="HDtmPVLynWEztx-Lgx2f-3">
                    <mxGeometry relative="1" as="geometry"/>
                </mxCell>
                <mxCell id="oDYzQLkar8WeZtvxlOlH-7" value="purchase date" style="ellipse;whiteSpace=wrap;html=1;" vertex="1" parent="HDtmPVLynWEztx-Lgx2f-1">
                    <mxGeometry x="90" y="290" width="120" height="80" as="geometry"/>
                </mxCell>
            </root>
        </mxGraphModel>
    </diagram>
    <diagram id="AGApS3B_BdfpaORHlcEU" name="UML">
        <mxGraphModel dx="1076" dy="790" grid="1" gridSize="10" guides="1" tooltips="1" connect="1" arrows="1" fold="1" page="1" pageScale="1" pageWidth="850" pageHeight="1100" math="0" shadow="0">
            <root>
                <mxCell id="Ka0Qe1axJUZHr6vDXdSI-0"/>
                <mxCell id="Ka0Qe1axJUZHr6vDXdSI-1" parent="Ka0Qe1axJUZHr6vDXdSI-0"/>
                <mxCell id="Ka0Qe1axJUZHr6vDXdSI-2" value="User" style="swimlane;fontStyle=1;align=center;verticalAlign=top;childLayout=stackLayout;horizontal=1;startSize=26;horizontalStack=0;resizeParent=1;resizeParentMax=0;resizeLast=0;collapsible=1;marginBottom=0;" vertex="1" parent="Ka0Qe1axJUZHr6vDXdSI-1">
                    <mxGeometry x="60" y="100" width="160" height="104" as="geometry"/>
                </mxCell>
                <mxCell id="Ka0Qe1axJUZHr6vDXdSI-3" value="+ userID: int" style="text;strokeColor=none;fillColor=none;align=left;verticalAlign=top;spacingLeft=4;spacingRight=4;overflow=hidden;rotatable=0;points=[[0,0.5],[1,0.5]];portConstraint=eastwest;" vertex="1" parent="Ka0Qe1axJUZHr6vDXdSI-2">
                    <mxGeometry y="26" width="160" height="26" as="geometry"/>
                </mxCell>
                <mxCell id="KHwKEWFf__7P19PQWkkm-3" value="+ fName: string" style="text;strokeColor=none;fillColor=none;align=left;verticalAlign=top;spacingLeft=4;spacingRight=4;overflow=hidden;rotatable=0;points=[[0,0.5],[1,0.5]];portConstraint=eastwest;" vertex="1" parent="Ka0Qe1axJUZHr6vDXdSI-2">
                    <mxGeometry y="52" width="160" height="26" as="geometry"/>
                </mxCell>
                <mxCell id="AraLyrExD1ohgNpDYgND-0" value="+ lName: string" style="text;strokeColor=none;fillColor=none;align=left;verticalAlign=top;spacingLeft=4;spacingRight=4;overflow=hidden;rotatable=0;points=[[0,0.5],[1,0.5]];portConstraint=eastwest;" vertex="1" parent="Ka0Qe1axJUZHr6vDXdSI-2">
                    <mxGeometry y="78" width="160" height="26" as="geometry"/>
                </mxCell>
                <mxCell id="Ka0Qe1axJUZHr6vDXdSI-6" value="Book" style="swimlane;fontStyle=1;align=center;verticalAlign=top;childLayout=stackLayout;horizontal=1;startSize=26;horizontalStack=0;resizeParent=1;resizeParentMax=0;resizeLast=0;collapsible=1;marginBottom=0;" vertex="1" parent="Ka0Qe1axJUZHr6vDXdSI-1">
                    <mxGeometry x="580" y="100" width="240" height="234" as="geometry">
                        <mxRectangle x="400" y="100" width="60" height="26" as="alternateBounds"/>
                    </mxGeometry>
                </mxCell>
                <mxCell id="Ka0Qe1axJUZHr6vDXdSI-7" value="+ title: string" style="text;strokeColor=none;fillColor=none;align=left;verticalAlign=top;spacingLeft=4;spacingRight=4;overflow=hidden;rotatable=0;points=[[0,0.5],[1,0.5]];portConstraint=eastwest;" vertex="1" parent="Ka0Qe1axJUZHr6vDXdSI-6">
                    <mxGeometry y="26" width="240" height="26" as="geometry"/>
                </mxCell>
                <mxCell id="AraLyrExD1ohgNpDYgND-1" value="+ author: string" style="text;strokeColor=none;fillColor=none;align=left;verticalAlign=top;spacingLeft=4;spacingRight=4;overflow=hidden;rotatable=0;points=[[0,0.5],[1,0.5]];portConstraint=eastwest;" vertex="1" parent="Ka0Qe1axJUZHr6vDXdSI-6">
                    <mxGeometry y="52" width="240" height="26" as="geometry"/>
                </mxCell>
                <mxCell id="AraLyrExD1ohgNpDYgND-2" value="+ description: string" style="text;strokeColor=none;fillColor=none;align=left;verticalAlign=top;spacingLeft=4;spacingRight=4;overflow=hidden;rotatable=0;points=[[0,0.5],[1,0.5]];portConstraint=eastwest;" vertex="1" parent="Ka0Qe1axJUZHr6vDXdSI-6">
                    <mxGeometry y="78" width="240" height="26" as="geometry"/>
                </mxCell>
                <mxCell id="SZ0WcbJX_twaBT3-WVJU-0" value="+ chapters: int" style="text;strokeColor=none;fillColor=none;align=left;verticalAlign=top;spacingLeft=4;spacingRight=4;overflow=hidden;rotatable=0;points=[[0,0.5],[1,0.5]];portConstraint=eastwest;" vertex="1" parent="Ka0Qe1axJUZHr6vDXdSI-6">
                    <mxGeometry y="104" width="240" height="26" as="geometry"/>
                </mxCell>
                <mxCell id="AraLyrExD1ohgNpDYgND-3" value="+ purchase date: DateTime" style="text;strokeColor=none;fillColor=none;align=left;verticalAlign=top;spacingLeft=4;spacingRight=4;overflow=hidden;rotatable=0;points=[[0,0.5],[1,0.5]];portConstraint=eastwest;" vertex="1" parent="Ka0Qe1axJUZHr6vDXdSI-6">
                    <mxGeometry y="130" width="240" height="26" as="geometry"/>
                </mxCell>
                <mxCell id="AraLyrExD1ohgNpDYgND-4" value="+ start reading date: DateTime" style="text;strokeColor=none;fillColor=none;align=left;verticalAlign=top;spacingLeft=4;spacingRight=4;overflow=hidden;rotatable=0;points=[[0,0.5],[1,0.5]];portConstraint=eastwest;" vertex="1" parent="Ka0Qe1axJUZHr6vDXdSI-6">
                    <mxGeometry y="156" width="240" height="26" as="geometry"/>
                </mxCell>
                <mxCell id="AraLyrExD1ohgNpDYgND-5" value="+ end reading date: DateTime" style="text;strokeColor=none;fillColor=none;align=left;verticalAlign=top;spacingLeft=4;spacingRight=4;overflow=hidden;rotatable=0;points=[[0,0.5],[1,0.5]];portConstraint=eastwest;" vertex="1" parent="Ka0Qe1axJUZHr6vDXdSI-6">
                    <mxGeometry y="182" width="240" height="26" as="geometry"/>
                </mxCell>
                <mxCell id="1Y6p-_kE71GHpXE27afR-2" value="+ bookID: int" style="text;strokeColor=none;fillColor=none;align=left;verticalAlign=top;spacingLeft=4;spacingRight=4;overflow=hidden;rotatable=0;points=[[0,0.5],[1,0.5]];portConstraint=eastwest;" vertex="1" parent="Ka0Qe1axJUZHr6vDXdSI-6">
                    <mxGeometry y="208" width="240" height="26" as="geometry"/>
                </mxCell>
                <mxCell id="lwFSu5vnCqqhaPZG6fS5-0" value="Search" style="swimlane;fontStyle=1;align=center;verticalAlign=top;childLayout=stackLayout;horizontal=1;startSize=26;horizontalStack=0;resizeParent=1;resizeParentMax=0;resizeLast=0;collapsible=1;marginBottom=0;" vertex="1" parent="Ka0Qe1axJUZHr6vDXdSI-1">
                    <mxGeometry x="280" y="100" width="240" height="260" as="geometry">
                        <mxRectangle x="400" y="100" width="60" height="26" as="alternateBounds"/>
                    </mxGeometry>
                </mxCell>
                <mxCell id="lwFSu5vnCqqhaPZG6fS5-1" value="+ title: string" style="text;strokeColor=none;fillColor=none;align=left;verticalAlign=top;spacingLeft=4;spacingRight=4;overflow=hidden;rotatable=0;points=[[0,0.5],[1,0.5]];portConstraint=eastwest;" vertex="1" parent="lwFSu5vnCqqhaPZG6fS5-0">
                    <mxGeometry y="26" width="240" height="26" as="geometry"/>
                </mxCell>
                <mxCell id="lwFSu5vnCqqhaPZG6fS5-2" value="+ author: string" style="text;strokeColor=none;fillColor=none;align=left;verticalAlign=top;spacingLeft=4;spacingRight=4;overflow=hidden;rotatable=0;points=[[0,0.5],[1,0.5]];portConstraint=eastwest;" vertex="1" parent="lwFSu5vnCqqhaPZG6fS5-0">
                    <mxGeometry y="52" width="240" height="26" as="geometry"/>
                </mxCell>
                <mxCell id="lwFSu5vnCqqhaPZG6fS5-3" value="+ description: string" style="text;strokeColor=none;fillColor=none;align=left;verticalAlign=top;spacingLeft=4;spacingRight=4;overflow=hidden;rotatable=0;points=[[0,0.5],[1,0.5]];portConstraint=eastwest;" vertex="1" parent="lwFSu5vnCqqhaPZG6fS5-0">
                    <mxGeometry y="78" width="240" height="26" as="geometry"/>
                </mxCell>
                <mxCell id="lwFSu5vnCqqhaPZG6fS5-4" value="+ chapters: int" style="text;strokeColor=none;fillColor=none;align=left;verticalAlign=top;spacingLeft=4;spacingRight=4;overflow=hidden;rotatable=0;points=[[0,0.5],[1,0.5]];portConstraint=eastwest;" vertex="1" parent="lwFSu5vnCqqhaPZG6fS5-0">
                    <mxGeometry y="104" width="240" height="26" as="geometry"/>
                </mxCell>
                <mxCell id="lwFSu5vnCqqhaPZG6fS5-5" value="+ purchase date: DateTime" style="text;strokeColor=none;fillColor=none;align=left;verticalAlign=top;spacingLeft=4;spacingRight=4;overflow=hidden;rotatable=0;points=[[0,0.5],[1,0.5]];portConstraint=eastwest;" vertex="1" parent="lwFSu5vnCqqhaPZG6fS5-0">
                    <mxGeometry y="130" width="240" height="26" as="geometry"/>
                </mxCell>
                <mxCell id="lwFSu5vnCqqhaPZG6fS5-6" value="+ start reading date: DateTime" style="text;strokeColor=none;fillColor=none;align=left;verticalAlign=top;spacingLeft=4;spacingRight=4;overflow=hidden;rotatable=0;points=[[0,0.5],[1,0.5]];portConstraint=eastwest;" vertex="1" parent="lwFSu5vnCqqhaPZG6fS5-0">
                    <mxGeometry y="156" width="240" height="26" as="geometry"/>
                </mxCell>
                <mxCell id="lwFSu5vnCqqhaPZG6fS5-7" value="+ end reading date: DateTime" style="text;strokeColor=none;fillColor=none;align=left;verticalAlign=top;spacingLeft=4;spacingRight=4;overflow=hidden;rotatable=0;points=[[0,0.5],[1,0.5]];portConstraint=eastwest;" vertex="1" parent="lwFSu5vnCqqhaPZG6fS5-0">
                    <mxGeometry y="182" width="240" height="26" as="geometry"/>
                </mxCell>
                <mxCell id="1Y6p-_kE71GHpXE27afR-1" value="+ searchID: number" style="text;strokeColor=none;fillColor=none;align=left;verticalAlign=top;spacingLeft=4;spacingRight=4;overflow=hidden;rotatable=0;points=[[0,0.5],[1,0.5]];portConstraint=eastwest;" vertex="1" parent="lwFSu5vnCqqhaPZG6fS5-0">
                    <mxGeometry y="208" width="240" height="26" as="geometry"/>
                </mxCell>
                <mxCell id="1Y6p-_kE71GHpXE27afR-3" value="+ fk_user_id: int" style="text;strokeColor=none;fillColor=none;align=left;verticalAlign=top;spacingLeft=4;spacingRight=4;overflow=hidden;rotatable=0;points=[[0,0.5],[1,0.5]];portConstraint=eastwest;" vertex="1" parent="lwFSu5vnCqqhaPZG6fS5-0">
                    <mxGeometry y="234" width="240" height="26" as="geometry"/>
                </mxCell>
                <mxCell id="lwFSu5vnCqqhaPZG6fS5-9" value="" style="edgeStyle=entityRelationEdgeStyle;fontSize=12;html=1;endArrow=ERmany;endFill=0;entryX=1;entryY=0.5;entryDx=0;entryDy=0;exitX=0;exitY=0.5;exitDx=0;exitDy=0;startArrow=ERmany;startFill=0;" edge="1" parent="Ka0Qe1axJUZHr6vDXdSI-1" source="lwFSu5vnCqqhaPZG6fS5-6" target="KHwKEWFf__7P19PQWkkm-3">
                    <mxGeometry width="100" height="100" relative="1" as="geometry">
                        <mxPoint x="200" y="254" as="sourcePoint"/>
                        <mxPoint x="260" y="160" as="targetPoint"/>
                    </mxGeometry>
                </mxCell>
                <mxCell id="lwFSu5vnCqqhaPZG6fS5-10" value="" style="edgeStyle=entityRelationEdgeStyle;fontSize=12;html=1;endArrow=ERmany;startArrow=ERmany;entryX=0;entryY=0.282;entryDx=0;entryDy=0;entryPerimeter=0;" edge="1" parent="Ka0Qe1axJUZHr6vDXdSI-1" source="lwFSu5vnCqqhaPZG6fS5-5" target="AraLyrExD1ohgNpDYgND-2">
                    <mxGeometry width="100" height="100" relative="1" as="geometry">
                        <mxPoint x="500" y="290" as="sourcePoint"/>
                        <mxPoint x="600" y="190" as="targetPoint"/>
                    </mxGeometry>
                </mxCell>
            </root>
        </mxGraphModel>
    </diagram>
    <diagram name="UML-norm" id="lowA-XUmcXUYR2KzmPwj">
        <mxGraphModel dx="1076" dy="790" grid="1" gridSize="10" guides="1" tooltips="1" connect="1" arrows="1" fold="1" page="1" pageScale="1" pageWidth="850" pageHeight="1100" math="0" shadow="0">
            <root>
                <mxCell id="0TWA3kOWb8BYH_uvdzaJ-0"/>
                <mxCell id="0TWA3kOWb8BYH_uvdzaJ-1" parent="0TWA3kOWb8BYH_uvdzaJ-0"/>
                <mxCell id="0TWA3kOWb8BYH_uvdzaJ-2" value="User" style="swimlane;fontStyle=1;align=center;verticalAlign=top;childLayout=stackLayout;horizontal=1;startSize=26;horizontalStack=0;resizeParent=1;resizeParentMax=0;resizeLast=0;collapsible=1;marginBottom=0;" vertex="1" parent="0TWA3kOWb8BYH_uvdzaJ-1">
                    <mxGeometry x="60" y="100" width="160" height="104" as="geometry"/>
                </mxCell>
                <mxCell id="0TWA3kOWb8BYH_uvdzaJ-3" value="+ userID: int" style="text;strokeColor=none;fillColor=none;align=left;verticalAlign=top;spacingLeft=4;spacingRight=4;overflow=hidden;rotatable=0;points=[[0,0.5],[1,0.5]];portConstraint=eastwest;" vertex="1" parent="0TWA3kOWb8BYH_uvdzaJ-2">
                    <mxGeometry y="26" width="160" height="26" as="geometry"/>
                </mxCell>
                <mxCell id="0TWA3kOWb8BYH_uvdzaJ-4" value="+ fName: string" style="text;strokeColor=none;fillColor=none;align=left;verticalAlign=top;spacingLeft=4;spacingRight=4;overflow=hidden;rotatable=0;points=[[0,0.5],[1,0.5]];portConstraint=eastwest;" vertex="1" parent="0TWA3kOWb8BYH_uvdzaJ-2">
                    <mxGeometry y="52" width="160" height="26" as="geometry"/>
                </mxCell>
                <mxCell id="0TWA3kOWb8BYH_uvdzaJ-5" value="+ lName: string" style="text;strokeColor=none;fillColor=none;align=left;verticalAlign=top;spacingLeft=4;spacingRight=4;overflow=hidden;rotatable=0;points=[[0,0.5],[1,0.5]];portConstraint=eastwest;" vertex="1" parent="0TWA3kOWb8BYH_uvdzaJ-2">
                    <mxGeometry y="78" width="160" height="26" as="geometry"/>
                </mxCell>
                <mxCell id="0TWA3kOWb8BYH_uvdzaJ-6" value="Book" style="swimlane;fontStyle=1;align=center;verticalAlign=top;childLayout=stackLayout;horizontal=1;startSize=26;horizontalStack=0;resizeParent=1;resizeParentMax=0;resizeLast=0;collapsible=1;marginBottom=0;" vertex="1" parent="0TWA3kOWb8BYH_uvdzaJ-1">
                    <mxGeometry x="580" y="100" width="240" height="234" as="geometry">
                        <mxRectangle x="400" y="100" width="60" height="26" as="alternateBounds"/>
                    </mxGeometry>
                </mxCell>
                <mxCell id="0TWA3kOWb8BYH_uvdzaJ-7" value="+ title: string" style="text;strokeColor=none;fillColor=none;align=left;verticalAlign=top;spacingLeft=4;spacingRight=4;overflow=hidden;rotatable=0;points=[[0,0.5],[1,0.5]];portConstraint=eastwest;" vertex="1" parent="0TWA3kOWb8BYH_uvdzaJ-6">
                    <mxGeometry y="26" width="240" height="26" as="geometry"/>
                </mxCell>
                <mxCell id="0TWA3kOWb8BYH_uvdzaJ-8" value="+ author: string" style="text;strokeColor=none;fillColor=none;align=left;verticalAlign=top;spacingLeft=4;spacingRight=4;overflow=hidden;rotatable=0;points=[[0,0.5],[1,0.5]];portConstraint=eastwest;" vertex="1" parent="0TWA3kOWb8BYH_uvdzaJ-6">
                    <mxGeometry y="52" width="240" height="26" as="geometry"/>
                </mxCell>
                <mxCell id="0TWA3kOWb8BYH_uvdzaJ-9" value="+ description: string" style="text;strokeColor=none;fillColor=none;align=left;verticalAlign=top;spacingLeft=4;spacingRight=4;overflow=hidden;rotatable=0;points=[[0,0.5],[1,0.5]];portConstraint=eastwest;" vertex="1" parent="0TWA3kOWb8BYH_uvdzaJ-6">
                    <mxGeometry y="78" width="240" height="26" as="geometry"/>
                </mxCell>
                <mxCell id="0TWA3kOWb8BYH_uvdzaJ-10" value="+ chapters: int" style="text;strokeColor=none;fillColor=none;align=left;verticalAlign=top;spacingLeft=4;spacingRight=4;overflow=hidden;rotatable=0;points=[[0,0.5],[1,0.5]];portConstraint=eastwest;" vertex="1" parent="0TWA3kOWb8BYH_uvdzaJ-6">
                    <mxGeometry y="104" width="240" height="26" as="geometry"/>
                </mxCell>
                <mxCell id="0TWA3kOWb8BYH_uvdzaJ-11" value="+ purchase date: DateTime" style="text;strokeColor=none;fillColor=none;align=left;verticalAlign=top;spacingLeft=4;spacingRight=4;overflow=hidden;rotatable=0;points=[[0,0.5],[1,0.5]];portConstraint=eastwest;" vertex="1" parent="0TWA3kOWb8BYH_uvdzaJ-6">
                    <mxGeometry y="130" width="240" height="26" as="geometry"/>
                </mxCell>
                <mxCell id="0TWA3kOWb8BYH_uvdzaJ-12" value="+ start reading date: DateTime" style="text;strokeColor=none;fillColor=none;align=left;verticalAlign=top;spacingLeft=4;spacingRight=4;overflow=hidden;rotatable=0;points=[[0,0.5],[1,0.5]];portConstraint=eastwest;" vertex="1" parent="0TWA3kOWb8BYH_uvdzaJ-6">
                    <mxGeometry y="156" width="240" height="26" as="geometry"/>
                </mxCell>
                <mxCell id="0TWA3kOWb8BYH_uvdzaJ-13" value="+ end reading date: DateTime" style="text;strokeColor=none;fillColor=none;align=left;verticalAlign=top;spacingLeft=4;spacingRight=4;overflow=hidden;rotatable=0;points=[[0,0.5],[1,0.5]];portConstraint=eastwest;" vertex="1" parent="0TWA3kOWb8BYH_uvdzaJ-6">
                    <mxGeometry y="182" width="240" height="26" as="geometry"/>
                </mxCell>
                <mxCell id="0TWA3kOWb8BYH_uvdzaJ-14" value="+ bookID: int" style="text;strokeColor=none;fillColor=none;align=left;verticalAlign=top;spacingLeft=4;spacingRight=4;overflow=hidden;rotatable=0;points=[[0,0.5],[1,0.5]];portConstraint=eastwest;" vertex="1" parent="0TWA3kOWb8BYH_uvdzaJ-6">
                    <mxGeometry y="208" width="240" height="26" as="geometry"/>
                </mxCell>
                <mxCell id="0TWA3kOWb8BYH_uvdzaJ-15" value="Search" style="swimlane;fontStyle=1;align=center;verticalAlign=top;childLayout=stackLayout;horizontal=1;startSize=26;horizontalStack=0;resizeParent=1;resizeParentMax=0;resizeLast=0;collapsible=1;marginBottom=0;" vertex="1" parent="0TWA3kOWb8BYH_uvdzaJ-1">
                    <mxGeometry x="280" y="100" width="240" height="260" as="geometry">
                        <mxRectangle x="400" y="100" width="60" height="26" as="alternateBounds"/>
                    </mxGeometry>
                </mxCell>
                <mxCell id="0TWA3kOWb8BYH_uvdzaJ-16" value="+ title: string" style="text;strokeColor=none;fillColor=none;align=left;verticalAlign=top;spacingLeft=4;spacingRight=4;overflow=hidden;rotatable=0;points=[[0,0.5],[1,0.5]];portConstraint=eastwest;" vertex="1" parent="0TWA3kOWb8BYH_uvdzaJ-15">
                    <mxGeometry y="26" width="240" height="26" as="geometry"/>
                </mxCell>
                <mxCell id="0TWA3kOWb8BYH_uvdzaJ-17" value="+ author: string" style="text;strokeColor=none;fillColor=none;align=left;verticalAlign=top;spacingLeft=4;spacingRight=4;overflow=hidden;rotatable=0;points=[[0,0.5],[1,0.5]];portConstraint=eastwest;" vertex="1" parent="0TWA3kOWb8BYH_uvdzaJ-15">
                    <mxGeometry y="52" width="240" height="26" as="geometry"/>
                </mxCell>
                <mxCell id="0TWA3kOWb8BYH_uvdzaJ-18" value="+ description: string" style="text;strokeColor=none;fillColor=none;align=left;verticalAlign=top;spacingLeft=4;spacingRight=4;overflow=hidden;rotatable=0;points=[[0,0.5],[1,0.5]];portConstraint=eastwest;" vertex="1" parent="0TWA3kOWb8BYH_uvdzaJ-15">
                    <mxGeometry y="78" width="240" height="26" as="geometry"/>
                </mxCell>
                <mxCell id="0TWA3kOWb8BYH_uvdzaJ-19" value="+ chapters: int" style="text;strokeColor=none;fillColor=none;align=left;verticalAlign=top;spacingLeft=4;spacingRight=4;overflow=hidden;rotatable=0;points=[[0,0.5],[1,0.5]];portConstraint=eastwest;" vertex="1" parent="0TWA3kOWb8BYH_uvdzaJ-15">
                    <mxGeometry y="104" width="240" height="26" as="geometry"/>
                </mxCell>
                <mxCell id="0TWA3kOWb8BYH_uvdzaJ-20" value="+ purchase date: DateTime" style="text;strokeColor=none;fillColor=none;align=left;verticalAlign=top;spacingLeft=4;spacingRight=4;overflow=hidden;rotatable=0;points=[[0,0.5],[1,0.5]];portConstraint=eastwest;" vertex="1" parent="0TWA3kOWb8BYH_uvdzaJ-15">
                    <mxGeometry y="130" width="240" height="26" as="geometry"/>
                </mxCell>
                <mxCell id="0TWA3kOWb8BYH_uvdzaJ-21" value="+ start reading date: DateTime" style="text;strokeColor=none;fillColor=none;align=left;verticalAlign=top;spacingLeft=4;spacingRight=4;overflow=hidden;rotatable=0;points=[[0,0.5],[1,0.5]];portConstraint=eastwest;" vertex="1" parent="0TWA3kOWb8BYH_uvdzaJ-15">
                    <mxGeometry y="156" width="240" height="26" as="geometry"/>
                </mxCell>
                <mxCell id="0TWA3kOWb8BYH_uvdzaJ-22" value="+ end reading date: DateTime" style="text;strokeColor=none;fillColor=none;align=left;verticalAlign=top;spacingLeft=4;spacingRight=4;overflow=hidden;rotatable=0;points=[[0,0.5],[1,0.5]];portConstraint=eastwest;" vertex="1" parent="0TWA3kOWb8BYH_uvdzaJ-15">
                    <mxGeometry y="182" width="240" height="26" as="geometry"/>
                </mxCell>
                <mxCell id="0TWA3kOWb8BYH_uvdzaJ-23" value="+ searchID: number" style="text;strokeColor=none;fillColor=none;align=left;verticalAlign=top;spacingLeft=4;spacingRight=4;overflow=hidden;rotatable=0;points=[[0,0.5],[1,0.5]];portConstraint=eastwest;" vertex="1" parent="0TWA3kOWb8BYH_uvdzaJ-15">
                    <mxGeometry y="208" width="240" height="26" as="geometry"/>
                </mxCell>
                <mxCell id="0TWA3kOWb8BYH_uvdzaJ-24" value="+ fk_user_id: int" style="text;strokeColor=none;fillColor=none;align=left;verticalAlign=top;spacingLeft=4;spacingRight=4;overflow=hidden;rotatable=0;points=[[0,0.5],[1,0.5]];portConstraint=eastwest;" vertex="1" parent="0TWA3kOWb8BYH_uvdzaJ-15">
                    <mxGeometry y="234" width="240" height="26" as="geometry"/>
                </mxCell>
                <mxCell id="0TWA3kOWb8BYH_uvdzaJ-25" value="" style="edgeStyle=entityRelationEdgeStyle;fontSize=12;html=1;endArrow=ERmany;endFill=0;entryX=1;entryY=0.5;entryDx=0;entryDy=0;exitX=0;exitY=0.5;exitDx=0;exitDy=0;startArrow=ERmany;startFill=0;" edge="1" parent="0TWA3kOWb8BYH_uvdzaJ-1" source="0TWA3kOWb8BYH_uvdzaJ-21" target="0TWA3kOWb8BYH_uvdzaJ-4">
                    <mxGeometry width="100" height="100" relative="1" as="geometry">
                        <mxPoint x="200" y="254" as="sourcePoint"/>
                        <mxPoint x="260" y="160" as="targetPoint"/>
                    </mxGeometry>
                </mxCell>
                <mxCell id="0TWA3kOWb8BYH_uvdzaJ-26" value="" style="edgeStyle=entityRelationEdgeStyle;fontSize=12;html=1;endArrow=ERmany;startArrow=ERmany;entryX=0;entryY=0.282;entryDx=0;entryDy=0;entryPerimeter=0;" edge="1" parent="0TWA3kOWb8BYH_uvdzaJ-1" source="0TWA3kOWb8BYH_uvdzaJ-20" target="0TWA3kOWb8BYH_uvdzaJ-9">
                    <mxGeometry width="100" height="100" relative="1" as="geometry">
                        <mxPoint x="500" y="290" as="sourcePoint"/>
                        <mxPoint x="600" y="190" as="targetPoint"/>
                    </mxGeometry>
                </mxCell>
                <mxCell id="0TWA3kOWb8BYH_uvdzaJ-27" value="Category" style="swimlane;fontStyle=1;align=center;verticalAlign=top;childLayout=stackLayout;horizontal=1;startSize=26;horizontalStack=0;resizeParent=1;resizeParentMax=0;resizeLast=0;collapsible=1;marginBottom=0;" vertex="1" parent="0TWA3kOWb8BYH_uvdzaJ-1">
                    <mxGeometry x="570" y="390" width="240" height="78" as="geometry">
                        <mxRectangle x="400" y="100" width="60" height="26" as="alternateBounds"/>
                    </mxGeometry>
                </mxCell>
                <mxCell id="0TWA3kOWb8BYH_uvdzaJ-28" value="+ category_id: int" style="text;strokeColor=none;fillColor=none;align=left;verticalAlign=top;spacingLeft=4;spacingRight=4;overflow=hidden;rotatable=0;points=[[0,0.5],[1,0.5]];portConstraint=eastwest;" vertex="1" parent="0TWA3kOWb8BYH_uvdzaJ-27">
                    <mxGeometry y="26" width="240" height="26" as="geometry"/>
                </mxCell>
                <mxCell id="0TWA3kOWb8BYH_uvdzaJ-29" value="+ category: string" style="text;strokeColor=none;fillColor=none;align=left;verticalAlign=top;spacingLeft=4;spacingRight=4;overflow=hidden;rotatable=0;points=[[0,0.5],[1,0.5]];portConstraint=eastwest;" vertex="1" parent="0TWA3kOWb8BYH_uvdzaJ-27">
                    <mxGeometry y="52" width="240" height="26" as="geometry"/>
                </mxCell>
                <mxCell id="0TWA3kOWb8BYH_uvdzaJ-30" value="" style="edgeStyle=entityRelationEdgeStyle;fontSize=12;html=1;endArrow=ERmany;endFill=0;startArrow=ERone;startFill=0;" edge="1" parent="0TWA3kOWb8BYH_uvdzaJ-1" source="0TWA3kOWb8BYH_uvdzaJ-28">
                    <mxGeometry width="100" height="100" relative="1" as="geometry">
                        <mxPoint x="410" y="450" as="sourcePoint"/>
                        <mxPoint x="580" y="306" as="targetPoint"/>
                    </mxGeometry>
                </mxCell>
            </root>
        </mxGraphModel>
    </diagram>
</mxfile>